# xmcd
#
# Track frame offsets:
#   150
#   20860
#   41570
#   59439
#   75843
#   93601
#   122036
#   142572
#   175008
#   196696
#   221800
#   251810
#   281820
#   298465
#
# Disc length: 4237 seconds
#
# Revision: 0
# Processed by: cddbd v1.5.1PL2 Copyright (c) Steve Scherf et al.
# Submitted via: GXTranscoder 2.0.1939
#
DISCID=d1108b0e
DTITLE=Hubert von Goisern - FÖN
DYEAR=1900
DGENRE=Country
TTITLE0=drawig
TTITLE1=da dasige
TTITLE2=katholisch
TTITLE3=da diab
TTITLE4=ang'lacht
TTITLE5=spat
TTITLE6=fön
TTITLE7=kalt
TTITLE8=die strass'n
TTITLE9=weh toan tuat's au feden fall
TTITLE10=mercedes benz
TTITLE11=fia di
TTITLE12=unbekannt 1
TTITLE13=unbekannt 2
EXTD=
EXTT0=
EXTT1=
EXTT2=
EXTT3=
EXTT4=
EXTT5=
EXTT6=
EXTT7=
EXTT8=
EXTT9=
EXTT10=
EXTT11=
EXTT12=
EXTT13=
PLAYORDER=
